<?xml version="1.0" encoding="UTF-8" standalone="no"?>
<svg width="539px" height="539px" viewBox="0 0 539 539" version="1.1" xmlns="http://www.w3.org/2000/svg" xmlns:xlink="http://www.w3.org/1999/xlink">
    <!-- Generator: Sketch 3.6.1 (26313) - http://www.bohemiancoding.com/sketch -->
    <title>buy-ipad</title>
    <desc>Created with Sketch.</desc>
    <defs>
        <rect id="path-1" x="0" y="0" width="136" height="183"></rect>
        <rect id="path-3" x="0" y="0" width="136" height="183"></rect>
    </defs>
    <g id="Page-1" stroke="none" stroke-width="1" fill="none" fill-rule="evenodd">
        <g id="Illo_Exploration-Copy-2" transform="translate(-719.000000, -280.000000)">
            <g id="buy-ipad" transform="translate(719.000000, 280.000000)">
                <rect id="Rectangle-106-Copy" fill="#44B6FF" x="0" y="0" width="539" height="539"></rect>
                <g id="Group-2-Copy-2" transform="translate(194.000000, 156.000000)">
                    <g id="ipad">
                        <path d="M152,220 C152,224.4 148.4,228 144,228 L8,228 C3.6,228 0,224.4 0,220 L0,8 C0,3.6 3.6,0 8,0 L144,0 C148.4,0 152,3.6 152,8 L152,220 L152,220 Z" id="XMLID_7_" stroke="#FFFFFF" stroke-width="4" fill="#FFFFFF"></path>
                        <g id="XMLID_564_" transform="translate(8.000000, 21.000000)">
                            <g id="XMLID_450_-link" fill="#C4E1F7">
                                <rect id="XMLID_450_" x="0" y="0" width="136" height="183"></rect>
                            </g>
                            <g id="XMLID_6_-Clipped">
                                <mask id="mask-2" fill="white">
                                    <use xlink:href="#path-1"></use>
                                </mask>
                                <g id="XMLID_450_"></g>
                                <g id="XMLID_6_" mask="url(#mask-2)">
                                    <rect id="XMLID_612_" fill="#E0F3FF" x="1" y="1" width="134" height="181"></rect>
                                    <path d="M134,2 L134,181 L2,181 L2,2 L134,2 L134,2 Z M136,0 L0,0 L0,183 L136,183 L136,0 L136,0 Z" id="XMLID_609_" fill="#44B6FF"></path>
                                </g>
                            </g>
                            <g id="light_10_-Clipped">
                                <mask id="mask-4" fill="white">
                                    <use xlink:href="#path-3"></use>
                                </mask>
                                <g id="XMLID_450_"></g>
                                <path d="M46.9,186.2 L-87,186.2 L-87,-9.5 L118.8,-9.5 L46.9,186.2 Z" id="light_10_" fill="#FFFFFF" opacity="0.44" mask="url(#mask-4)"></path>
                            </g>
                        </g>
                        <ellipse id="XMLID_4_" stroke="#44B6FF" stroke-width="2" cx="75.8" cy="214.4" rx="5.8" ry="5.8"></ellipse>
                        <g id="XMLID_3_" transform="translate(72.000000, 6.000000)" fill="#44B6FF">
                            <path d="M3.8,2.4 C4.4,2.4 4.8,2.8 4.8,3.4 C4.8,4 4.4,4.4 3.8,4.4 C3.2,4.4 2.8,4 2.8,3.4 C2.8,2.8 3.3,2.4 3.8,2.4 L3.8,2.4 Z M3.8,0.4 C2.1,0.4 0.8,1.7 0.8,3.4 C0.8,5.1 2.1,6.4 3.8,6.4 C5.5,6.4 6.8,5.1 6.8,3.4 C6.8,1.7 5.5,0.4 3.8,0.4 L3.8,0.4 L3.8,0.4 Z" id="XMLID_613_"></path>
                        </g>
                    </g>
                </g>
            </g>
        </g>
    </g>
</svg>