<?xml version="1.0" encoding="UTF-8" standalone="no"?>
<svg width="539px" height="539px" viewBox="0 0 539 539" version="1.1" xmlns="http://www.w3.org/2000/svg" xmlns:xlink="http://www.w3.org/1999/xlink">
    <!-- Generator: Sketch 3.6.1 (26313) - http://www.bohemiancoding.com/sketch -->
    <title>sell-ipad</title>
    <desc>Created with Sketch.</desc>
    <defs>
        <ellipse id="path-1" cx="44.3" cy="44.1" rx="43.9" ry="43.9"></ellipse>
        <ellipse id="path-3" cx="44.3" cy="44.1" rx="43.9" ry="43.9"></ellipse>
        <ellipse id="path-5" cx="44.3" cy="44.1" rx="43.9" ry="43.9"></ellipse>
        <path id="path-7" d="M44.3,88 C68.5453005,88 88.2,68.3453005 88.2,44.1 C88.2,19.8546995 68.5453005,0.2 44.3,0.2 C20.0546995,0.2 0.4,19.8546995 0.4,44.1 C0.4,68.3453005 20.0546995,88 44.3,88 Z"></path>
        <rect id="path-9" x="0" y="0" width="136" height="183"></rect>
    </defs>
    <g id="Page-1" stroke="none" stroke-width="1" fill="none" fill-rule="evenodd">
        <g id="Illo_Exploration-Copy-2" transform="translate(-1300.000000, -280.000000)">
            <g id="sell-ipad" transform="translate(1300.000000, 280.000000)">
                <rect id="Rectangle-106" fill="#FFFFFF" x="0" y="0" width="539" height="539"></rect>
                <g id="Group-2" transform="translate(76.000000, 136.000000)">
                    <g id="documents" transform="translate(281.072366, 194.871798) rotate(27.000000) translate(-281.072366, -194.871798) translate(154.072366, 40.871798)">
                        <g id="front_4_" transform="translate(0.000000, -0.000000)">
                            <rect id="base_7_" stroke="#44B6FF" stroke-width="3.9998805" fill="#FFFFFF" transform="translate(126.770420, 154.011460) rotate(-14.999329) translate(-126.770420, -154.011460) " x="31.7732582" y="20.5154484" width="189.994324" height="266.992023"></rect>
                            <g id="lines_3_" transform="translate(13.000000, 28.000000)" stroke="#E0F3FF">
                                <path d="M22.4,20.6 L87.4,263" id="XMLID_268_" stroke-width="2"></path>
                                <path d="M0.4,46.6 L173.3,0.3" id="XMLID_267_"></path>
                                <path d="M2.5,54.4 L175.4,8" id="XMLID_266_"></path>
                                <path d="M4.6,62.1 L177.5,15.8" id="XMLID_265_"></path>
                                <path d="M6.7,69.8 L179.6,23.5" id="XMLID_264_"></path>
                                <path d="M8.7,77.6 L181.6,31.2" id="XMLID_263_"></path>
                                <path d="M10.8,85.3 L183.7,39" id="XMLID_262_"></path>
                                <path d="M12.9,93 L185.8,46.7" id="XMLID_261_"></path>
                                <path d="M14.9,100.7 L187.8,54.4" id="XMLID_260_"></path>
                                <path d="M17,108.5 L189.9,62.1" id="XMLID_259_"></path>
                                <path d="M19.1,116.2 L192,69.9" id="XMLID_258_"></path>
                                <path d="M21.1,123.9 L194,77.6" id="XMLID_257_"></path>
                                <path d="M23.2,131.6 L196.1,85.3" id="XMLID_256_"></path>
                                <path d="M25.3,139.4 L198.2,93" id="XMLID_255_"></path>
                                <path d="M27.4,147.1 L200.3,100.8" id="XMLID_254_"></path>
                                <path d="M29.4,154.8 L202.3,108.5" id="XMLID_253_"></path>
                                <path d="M31.5,162.6 L204.4,116.2" id="XMLID_252_"></path>
                                <path d="M33.6,170.3 L206.5,124" id="XMLID_251_"></path>
                                <path d="M35.6,178 L208.5,131.7" id="XMLID_250_"></path>
                                <path d="M37.7,185.7 L210.6,139.4" id="XMLID_249_"></path>
                                <path d="M39.8,193.5 L212.7,147.1" id="XMLID_248_"></path>
                                <path d="M41.9,201.2 L214.8,154.9" id="XMLID_247_"></path>
                                <path d="M43.9,208.9 L216.8,162.6" id="XMLID_246_"></path>
                                <path d="M46,216.6 L218.9,170.3" id="XMLID_245_"></path>
                                <path d="M48.1,224.4 L221,178" id="XMLID_244_"></path>
                                <path d="M50.1,232.1 L223,185.8" id="XMLID_243_"></path>
                                <path d="M52.2,239.8 L225.1,193.5" id="XMLID_242_"></path>
                                <path d="M54.3,247.6 L227.2,201.2" id="XMLID_241_"></path>
                                <path d="M56.3,255.3 L229.2,209" id="XMLID_240_"></path>
                                <path d="M58.4,263 L231.3,216.7" id="XMLID_239_"></path>
                            </g>
                            <g id="holes_3_" transform="translate(16.000000, 66.000000)">
                                <g id="XMLID_238_" transform="translate(56.000000, 206.000000)">
                                    <path d="M5.1,9.6 C3.3,9.6 1.7,8.4 1.2,6.6 C0.6,4.5 1.9,2.3 4,1.7 C4.3,1.6 4.7,1.6 5,1.6 C6.8,1.6 8.4,2.8 8.9,4.6 C9.5,6.7 8.2,8.9 6.1,9.5 C5.8,9.5 5.5,9.6 5.1,9.6 L5.1,9.6 Z" id="XMLID_507_" fill="#FFFFFF"></path>
                                    <path d="M5.1,2.6 L5.1,2.6 C6.5,2.6 7.6,3.5 8,4.8 C8.4,6.4 7.5,8 5.9,8.5 C5.6,8.6 5.4,8.6 5.1,8.6 C3.7,8.6 2.6,7.7 2.2,6.4 C1.8,4.8 2.7,3.2 4.3,2.7 C4.6,2.6 4.9,2.6 5.1,2.6 L5.1,2.6 Z M5.1,0.6 C4.7,0.6 4.2,0.7 3.8,0.8 C1.1,1.5 -0.5,4.3 0.3,6.9 C0.9,9.1 2.9,10.6 5.1,10.6 C5.5,10.6 6,10.5 6.4,10.4 C9.1,9.7 10.7,6.9 9.9,4.3 C9.4,2 7.3,0.6 5.1,0.6 L5.1,0.6 L5.1,0.6 Z" id="XMLID_504_" fill="#1485E0"></path>
                                </g>
                                <g id="XMLID_237_" transform="translate(28.000000, 103.000000)">
                                    <path d="M5.6,9.7 C3.8,9.7 2.2,8.5 1.7,6.7 C1.4,5.7 1.6,4.6 2.1,3.7 C2.6,2.8 3.5,2.1 4.5,1.8 C4.8,1.7 5.2,1.7 5.5,1.7 C7.3,1.7 8.9,2.9 9.4,4.7 C9.7,5.7 9.5,6.8 9,7.7 C8.5,8.6 7.6,9.3 6.6,9.6 C6.3,9.7 5.9,9.7 5.6,9.7 L5.6,9.7 Z" id="XMLID_502_" fill="#FFFFFF"></path>
                                    <path d="M5.6,2.7 L5.6,2.7 C7,2.7 8.1,3.6 8.5,4.9 C8.7,5.7 8.6,6.5 8.2,7.2 C7.8,7.9 7.2,8.4 6.4,8.6 C6.1,8.7 5.9,8.7 5.6,8.7 C4.2,8.7 3.1,7.8 2.7,6.5 C2.5,5.7 2.6,4.9 3,4.2 C3.4,3.5 4,3 4.8,2.8 C5.1,2.7 5.3,2.7 5.6,2.7 L5.6,2.7 Z M5.6,0.7 C5.2,0.7 4.7,0.8 4.3,0.9 C1.6,1.6 -1.70308212e-13,4.4 0.8,7 C1.4,9.2 3.4,10.7 5.6,10.7 C6,10.7 6.5,10.6 6.9,10.5 C9.6,9.8 11.2,7 10.4,4.4 C9.8,2.2 7.8,0.7 5.6,0.7 L5.6,0.7 L5.6,0.7 Z" id="XMLID_499_" fill="#1485E0"></path>
                                </g>
                                <g id="XMLID_236_">
                                    <path d="M6,9.8 C4.2,9.8 2.6,8.6 2.1,6.8 C1.5,4.7 2.8,2.5 4.9,1.9 C5.2,1.8 5.6,1.8 5.9,1.8 C7.7,1.8 9.3,3 9.8,4.8 C10.4,6.9 9.1,9.1 7,9.7 C6.7,9.8 6.4,9.8 6,9.8 L6,9.8 Z" id="XMLID_497_" fill="#FFFFFF"></path>
                                    <path d="M6,2.8 L6,2.8 C7.4,2.8 8.5,3.7 8.9,5 C9.3,6.6 8.4,8.2 6.8,8.7 C6.5,8.8 6.3,8.8 6,8.8 C4.6,8.8 3.5,7.9 3.1,6.6 C2.9,5.8 3,5 3.4,4.3 C3.8,3.6 4.4,3.1 5.2,2.9 C5.5,2.9 5.7,2.8 6,2.8 L6,2.8 Z M6,0.8 C5.6,0.8 5.1,0.9 4.7,1 C2,1.7 0.4,4.5 1.2,7.1 C1.8,9.3 3.8,10.8 6,10.8 C6.4,10.8 6.9,10.7 7.3,10.6 C10,9.9 11.6,7.1 10.8,4.5 C10.2,2.3 8.2,0.8 6,0.8 L6,0.8 L6,0.8 Z" id="XMLID_494_" fill="#1485E0"></path>
                                </g>
                            </g>
                        </g>
                        <g id="front_3_" transform="translate(32.000000, 21.000000)">
                            <rect id="base_6_" stroke="#44B6FF" stroke-width="4" fill="#FFFFFF" x="0" y="0" width="190" height="267"></rect>
                            <g id="lines_1_" transform="translate(6.000000, 8.000000)" stroke="#E0F3FF">
                                <path d="M28,-5.68434189e-14 L28,251" id="XMLID_235_" stroke-width="2"></path>
                                <path d="M-3.12638804e-13,19.5 L179,19.5" id="XMLID_234_"></path>
                                <path d="M-5.1159077e-13,27.5 L179,27.5" id="XMLID_233_"></path>
                                <path d="M8.52651283e-14,35.5 L179,35.5" id="XMLID_232_"></path>
                                <path d="M-1.13686838e-13,43.5 L179,43.5" id="XMLID_231_"></path>
                                <path d="M5.1159077e-13,51.5 L179,51.5" id="XMLID_230_"></path>
                                <path d="M2.84217094e-13,59.5 L179,59.5" id="XMLID_229_"></path>
                                <path d="M1.70530257e-13,67.5 L179,67.5" id="XMLID_228_"></path>
                                <path d="M-8.52651283e-14,75.5 L179,75.5" id="XMLID_227_"></path>
                                <path d="M-3.12638804e-13,83.5 L179,83.5" id="XMLID_226_"></path>
                                <path d="M-4.8316906e-13,91.5 L179,91.5" id="XMLID_225_"></path>
                                <path d="M1.42108547e-13,99.5 L179,99.5" id="XMLID_224_"></path>
                                <path d="M-8.52651283e-14,107.5 L179,107.5" id="XMLID_223_"></path>
                                <path d="M4.8316906e-13,115.5 L179,115.5" id="XMLID_222_"></path>
                                <path d="M3.41060513e-13,123.5 L179,123.5" id="XMLID_221_"></path>
                                <path d="M1.13686838e-13,131.5 L179,131.5" id="XMLID_220_"></path>
                                <path d="M-1.42108547e-13,139.5 L179,139.5" id="XMLID_219_"></path>
                                <path d="M-2.84217094e-13,147.5 L179,147.5" id="XMLID_218_"></path>
                                <path d="M-4.8316906e-13,155.5 L179,155.5" id="XMLID_217_"></path>
                                <path d="M1.42108547e-13,163.5 L179,163.5" id="XMLID_216_"></path>
                                <path d="M-8.52651283e-14,171.5 L179,171.5" id="XMLID_215_"></path>
                                <path d="M5.40012479e-13,179.5 L179,179.5" id="XMLID_214_"></path>
                                <path d="M3.69482223e-13,187.5 L179,187.5" id="XMLID_213_"></path>
                                <path d="M8.52651283e-14,195.5 L179,195.5" id="XMLID_212_"></path>
                                <path d="M-8.52651283e-14,203.5 L179,203.5" id="XMLID_211_"></path>
                                <path d="M-2.27373675e-13,211.5 L179,211.5" id="XMLID_210_"></path>
                                <path d="M-4.54747351e-13,219.5 L179,219.5" id="XMLID_209_"></path>
                                <path d="M8.52651283e-14,227.5 L179,227.5" id="XMLID_208_"></path>
                                <path d="M-1.42108547e-13,235.5 L179,235.5" id="XMLID_207_"></path>
                                <path d="M4.54747351e-13,243.5 L179,243.5" id="XMLID_206_"></path>
                            </g>
                            <g id="holes_1_" transform="translate(9.000000, 21.000000)">
                                <g id="XMLID_205_" transform="translate(0.000000, 213.000000)">
                                    <path d="M5.8,9.5 C3.6,9.5 1.8,7.7 1.8,5.5 C1.8,3.3 3.6,1.5 5.8,1.5 C8,1.5 9.8,3.3 9.8,5.5 C9.8,7.7 8.1,9.5 5.8,9.5 L5.8,9.5 Z" id="XMLID_525_" fill="#FFFFFF"></path>
                                    <path d="M5.8,2.5 C7.5,2.5 8.8,3.8 8.8,5.5 C8.8,7.2 7.5,8.5 5.8,8.5 C4.1,8.5 2.8,7.2 2.8,5.5 C2.8,3.8 4.2,2.5 5.8,2.5 L5.8,2.5 Z M5.8,0.5 C3,0.5 0.8,2.7 0.8,5.5 C0.8,8.3 3,10.5 5.8,10.5 C8.6,10.5 10.8,8.3 10.8,5.5 C10.8,2.7 8.6,0.5 5.8,0.5 L5.8,0.5 L5.8,0.5 Z" id="XMLID_490_" fill="#44B6FF"></path>
                                </g>
                                <g id="XMLID_204_" transform="translate(0.000000, 107.000000)">
                                    <path d="M5.8,9 C3.6,9 1.8,7.2 1.8,5 C1.8,2.8 3.6,1 5.8,1 C8,1 9.8,2.8 9.8,5 C9.8,7.2 8.1,9 5.8,9 L5.8,9 Z" id="XMLID_531_" fill="#FFFFFF"></path>
                                    <path d="M5.8,2 C7.5,2 8.8,3.3 8.8,5 C8.8,6.7 7.5,8 5.8,8 C4.1,8 2.8,6.7 2.8,5 C2.8,3.3 4.2,2 5.8,2 L5.8,2 Z M5.8,1.84741111e-13 C3,1.84741111e-13 0.8,2.2 0.8,5 C0.8,7.8 3,10 5.8,10 C8.6,10 10.8,7.8 10.8,5 C10.8,2.2 8.6,1.84741111e-13 5.8,1.84741111e-13 L5.8,1.84741111e-13 L5.8,1.84741111e-13 Z" id="XMLID_526_" fill="#1485E0"></path>
                                </g>
                                <g id="XMLID_203_">
                                    <path d="M5.8,9.5 C3.6,9.5 1.8,7.7 1.8,5.5 C1.8,3.3 3.6,1.5 5.8,1.5 C8,1.5 9.8,3.3 9.8,5.5 C9.8,7.7 8.1,9.5 5.8,9.5 L5.8,9.5 Z" id="XMLID_549_" fill="#FFFFFF"></path>
                                    <path d="M5.8,2.5 C7.5,2.5 8.8,3.8 8.8,5.5 C8.8,7.2 7.5,8.5 5.8,8.5 C4.1,8.5 2.8,7.2 2.8,5.5 C2.8,3.8 4.2,2.5 5.8,2.5 L5.8,2.5 Z M5.8,0.5 C3,0.5 0.8,2.7 0.8,5.5 C0.8,8.3 3,10.5 5.8,10.5 C8.6,10.5 10.8,8.3 10.8,5.5 C10.8,2.7 8.6,0.5 5.8,0.5 L5.8,0.5 L5.8,0.5 Z" id="XMLID_532_" fill="#1485E0"></path>
                                </g>
                            </g>
                        </g>
                    </g>
                    <g id="cofee" transform="translate(0.000000, 11.000000)">
                        <path d="M46,132.9 C44.6,133.2 43.2,133.3 41.8,133.4 C41.2,133.4 40.6,133.5 40,133.5" id="XMLID_202_" stroke="#44B6FF" stroke-width="2"></path>
                        <path d="M21.4,129 C3.2,119.1 -3.5,96.3 6.4,78.1 C16.3,59.9 39.1,53.2 57.3,63.1 C75.5,73 82.2,95.8 72.3,114 C67.8,122.2 60.7,128.1 52.6,131.2" id="XMLID_201_" stroke="#44B6FF" stroke-width="2"></path>
                        <path d="M105.6,16.4 L94.3,27.7 C92,30 88.2,30 85.8,27.7 L80.1,22 C77.8,19.7 77.8,15.9 80.1,13.5 L91.4,2.2 C93.7,-0.1 97.5,-0.1 99.9,2.2 L105.6,7.9 C107.9,10.2 107.9,14 105.6,16.4 L105.6,16.4 Z" id="take" stroke="#44B6FF" stroke-width="4" fill="#FFFFFF"></path>
                        <ellipse id="base_4_" stroke="#44B6FF" stroke-width="4" fill="#FFFFFF" cx="53.3" cy="58.1" rx="52.5" ry="52.5"></ellipse>
                        <g id="XMLID_847_" transform="translate(9.000000, 14.000000)">
                            <g id="inside-Clipped">
                                <mask id="mask-2" fill="white">
                                    <use xlink:href="#path-1"></use>
                                </mask>
                                <g id="inside_1_"></g>
                                <ellipse id="inside" stroke="#44B6FF" stroke-width="2" fill="#C4E1F7" mask="url(#mask-2)" cx="44.3" cy="44.1" rx="42.5" ry="42.5"></ellipse>
                            </g>
                            <g id="cream-Clipped">
                                <mask id="mask-4" fill="white">
                                    <use xlink:href="#path-3"></use>
                                </mask>
                                <g id="inside_1_"></g>
                            </g>
                            <g id="XMLID_849_-Clipped">
                                <mask id="mask-6" fill="white">
                                    <use xlink:href="#path-5"></use>
                                </mask>
                                <g id="inside_1_"></g>
                                <g id="XMLID_849_" mask="url(#mask-6)" stroke="#44B6FF" stroke-width="2" fill="#FFFFFF">
                                    <g transform="translate(40.000000, 15.000000)" id="XMLID_199_">
                                        <path d="M31.4,4.7 C26.2,14.4 44.9,18.8 38.2,31.1 C31.3,43.8 5.7,41.2 1.2,49.6 C-1.4,54.4 1.3,60.9 10.1,65.1 C26.9,73.2 47.4,66.3 56.5,49.6 C65.7,32.6 60.6,12.2 44.1,2.4 C44,2.5 35.4,-2.8 31.4,4.7 L31.4,4.7 Z"></path>
                                    </g>
                                </g>
                            </g>
                            <g id="XMLID_198_-Clipped">
                                <mask id="mask-8" fill="white">
                                    <use xlink:href="#path-7"></use>
                                </mask>
                                <g id="inside_1_"></g>
                                <ellipse id="XMLID_198_" stroke="#44B6FF" stroke-width="2.0298" mask="url(#mask-8)" cx="45" cy="44.1" rx="42.6" ry="42.6"></ellipse>
                            </g>
                        </g>
                    </g>
                    <g id="ipad" transform="translate(118.000000, 20.000000)">
                        <path d="M152,220 C152,224.4 148.4,228 144,228 L8,228 C3.6,228 0,224.4 0,220 L0,8 C0,3.6 3.6,0 8,0 L144,0 C148.4,0 152,3.6 152,8 L152,220 L152,220 Z" id="XMLID_7_" stroke="#44B6FF" stroke-width="4" fill="#FFFFFF"></path>
                        <g id="XMLID_564_" transform="translate(8.000000, 21.000000)">
                            <g id="XMLID_450_-link" fill="#C4E1F7">
                                <rect id="XMLID_450_" x="0" y="0" width="136" height="183"></rect>
                            </g>
                            <g id="XMLID_6_-Clipped">
                                <mask id="mask-10" fill="white">
                                    <use xlink:href="#path-9"></use>
                                </mask>
                                <g id="XMLID_450_"></g>
                                <g id="XMLID_6_" mask="url(#mask-10)">
                                    <rect id="XMLID_612_" fill="#E0F3FF" x="1" y="1" width="134" height="181"></rect>
                                    <path d="M134,2 L134,181 L2,181 L2,2 L134,2 L134,2 Z M136,0 L0,0 L0,183 L136,183 L136,0 L136,0 Z" id="XMLID_609_" fill="#44B6FF"></path>
                                </g>
                            </g>
                        </g>
                        <ellipse id="XMLID_4_" stroke="#44B6FF" stroke-width="2" cx="75.8" cy="214.4" rx="5.8" ry="5.8"></ellipse>
                        <g id="XMLID_3_" transform="translate(72.000000, 6.000000)" fill="#44B6FF">
                            <path d="M3.8,2.4 C4.4,2.4 4.8,2.8 4.8,3.4 C4.8,4 4.4,4.4 3.8,4.4 C3.2,4.4 2.8,4 2.8,3.4 C2.8,2.8 3.3,2.4 3.8,2.4 L3.8,2.4 Z M3.8,0.4 C2.1,0.4 0.8,1.7 0.8,3.4 C0.8,5.1 2.1,6.4 3.8,6.4 C5.5,6.4 6.8,5.1 6.8,3.4 C6.8,1.7 5.5,0.4 3.8,0.4 L3.8,0.4 L3.8,0.4 Z" id="XMLID_613_"></path>
                        </g>
                    </g>
                    <g id="documents-copy" transform="translate(280.845370, 195.317301) rotate(27.000000) translate(-280.845370, -195.317301) translate(185.845370, 61.817301)">
                        <g id="front_3_" transform="translate(0.000000, -0.000000)">
                            <rect id="base_6_" stroke="#44B6FF" stroke-width="4" fill="#FFFFFF" x="0" y="0" width="190" height="267"></rect>
                            <g id="lines_1_" transform="translate(6.000000, 8.000000)" stroke="#E0F3FF">
                                <path d="M28,-5.68434189e-14 L28,251" id="XMLID_235_" stroke-width="2"></path>
                                <path d="M-3.12638804e-13,19.5 L179,19.5" id="XMLID_234_"></path>
                                <path d="M-5.1159077e-13,27.5 L179,27.5" id="XMLID_233_"></path>
                                <path d="M8.52651283e-14,35.5 L179,35.5" id="XMLID_232_"></path>
                                <path d="M-1.13686838e-13,43.5 L179,43.5" id="XMLID_231_"></path>
                                <path d="M5.1159077e-13,51.5 L179,51.5" id="XMLID_230_"></path>
                                <path d="M2.84217094e-13,59.5 L179,59.5" id="XMLID_229_"></path>
                                <path d="M1.70530257e-13,67.5 L179,67.5" id="XMLID_228_"></path>
                                <path d="M-8.52651283e-14,75.5 L179,75.5" id="XMLID_227_"></path>
                                <path d="M-3.12638804e-13,83.5 L179,83.5" id="XMLID_226_"></path>
                                <path d="M-4.8316906e-13,91.5 L179,91.5" id="XMLID_225_"></path>
                                <path d="M1.42108547e-13,99.5 L179,99.5" id="XMLID_224_"></path>
                                <path d="M-8.52651283e-14,107.5 L179,107.5" id="XMLID_223_"></path>
                                <path d="M4.8316906e-13,115.5 L179,115.5" id="XMLID_222_"></path>
                                <path d="M3.41060513e-13,123.5 L179,123.5" id="XMLID_221_"></path>
                                <path d="M1.13686838e-13,131.5 L179,131.5" id="XMLID_220_"></path>
                                <path d="M-1.42108547e-13,139.5 L179,139.5" id="XMLID_219_"></path>
                                <path d="M-2.84217094e-13,147.5 L179,147.5" id="XMLID_218_"></path>
                                <path d="M-4.8316906e-13,155.5 L179,155.5" id="XMLID_217_"></path>
                                <path d="M1.42108547e-13,163.5 L179,163.5" id="XMLID_216_"></path>
                                <path d="M-8.52651283e-14,171.5 L179,171.5" id="XMLID_215_"></path>
                                <path d="M5.40012479e-13,179.5 L179,179.5" id="XMLID_214_"></path>
                                <path d="M3.69482223e-13,187.5 L179,187.5" id="XMLID_213_"></path>
                                <path d="M8.52651283e-14,195.5 L179,195.5" id="XMLID_212_"></path>
                                <path d="M-8.52651283e-14,203.5 L179,203.5" id="XMLID_211_"></path>
                                <path d="M-2.27373675e-13,211.5 L179,211.5" id="XMLID_210_"></path>
                                <path d="M-4.54747351e-13,219.5 L179,219.5" id="XMLID_209_"></path>
                                <path d="M8.52651283e-14,227.5 L179,227.5" id="XMLID_208_"></path>
                                <path d="M-1.42108547e-13,235.5 L179,235.5" id="XMLID_207_"></path>
                                <path d="M4.54747351e-13,243.5 L179,243.5" id="XMLID_206_"></path>
                            </g>
                            <g id="holes_1_" transform="translate(9.000000, 21.000000)">
                                <g id="XMLID_205_" transform="translate(0.000000, 213.000000)">
                                    <path d="M5.8,9.5 C3.6,9.5 1.8,7.7 1.8,5.5 C1.8,3.3 3.6,1.5 5.8,1.5 C8,1.5 9.8,3.3 9.8,5.5 C9.8,7.7 8.1,9.5 5.8,9.5 L5.8,9.5 Z" id="XMLID_525_" fill="#FFFFFF"></path>
                                    <path d="M5.8,2.5 C7.5,2.5 8.8,3.8 8.8,5.5 C8.8,7.2 7.5,8.5 5.8,8.5 C4.1,8.5 2.8,7.2 2.8,5.5 C2.8,3.8 4.2,2.5 5.8,2.5 L5.8,2.5 Z M5.8,0.5 C3,0.5 0.8,2.7 0.8,5.5 C0.8,8.3 3,10.5 5.8,10.5 C8.6,10.5 10.8,8.3 10.8,5.5 C10.8,2.7 8.6,0.5 5.8,0.5 L5.8,0.5 L5.8,0.5 Z" id="XMLID_490_" fill="#44B6FF"></path>
                                </g>
                                <g id="XMLID_204_" transform="translate(0.000000, 107.000000)">
                                    <path d="M5.8,9 C3.6,9 1.8,7.2 1.8,5 C1.8,2.8 3.6,1 5.8,1 C8,1 9.8,2.8 9.8,5 C9.8,7.2 8.1,9 5.8,9 L5.8,9 Z" id="XMLID_531_" fill="#FFFFFF"></path>
                                    <path d="M5.8,2 C7.5,2 8.8,3.3 8.8,5 C8.8,6.7 7.5,8 5.8,8 C4.1,8 2.8,6.7 2.8,5 C2.8,3.3 4.2,2 5.8,2 L5.8,2 Z M5.8,1.84741111e-13 C3,1.84741111e-13 0.8,2.2 0.8,5 C0.8,7.8 3,10 5.8,10 C8.6,10 10.8,7.8 10.8,5 C10.8,2.2 8.6,1.84741111e-13 5.8,1.84741111e-13 L5.8,1.84741111e-13 L5.8,1.84741111e-13 Z" id="XMLID_526_" fill="#44B6FF"></path>
                                </g>
                                <g id="XMLID_203_">
                                    <path d="M5.8,9.5 C3.6,9.5 1.8,7.7 1.8,5.5 C1.8,3.3 3.6,1.5 5.8,1.5 C8,1.5 9.8,3.3 9.8,5.5 C9.8,7.7 8.1,9.5 5.8,9.5 L5.8,9.5 Z" id="XMLID_549_" fill="#FFFFFF"></path>
                                    <path d="M5.8,2.5 C7.5,2.5 8.8,3.8 8.8,5.5 C8.8,7.2 7.5,8.5 5.8,8.5 C4.1,8.5 2.8,7.2 2.8,5.5 C2.8,3.8 4.2,2.5 5.8,2.5 L5.8,2.5 Z M5.8,0.5 C3,0.5 0.8,2.7 0.8,5.5 C0.8,8.3 3,10.5 5.8,10.5 C8.6,10.5 10.8,8.3 10.8,5.5 C10.8,2.7 8.6,0.5 5.8,0.5 L5.8,0.5 L5.8,0.5 Z" id="XMLID_532_" fill="#44B6FF"></path>
                                </g>
                            </g>
                        </g>
                    </g>
                </g>
            </g>
        </g>
    </g>
</svg>